
<svg xmlns="http://www.w3.org/2000/svg" version="1.1" width="1080px" height="1080px" style="shape-rendering:geometricPrecision; text-rendering:geometricPrecision; image-rendering:optimizeQuality; fill-rule:evenodd; clip-rule:evenodd" xmlns:xlink="http://www.w3.org/1999/xlink">
<g><path style="opacity:1" fill="#000000" d="M -0.5,-0.5 C 359.5,-0.5 719.5,-0.5 1079.5,-0.5C 1079.5,359.5 1079.5,719.5 1079.5,1079.5C 719.5,1079.5 359.5,1079.5 -0.5,1079.5C -0.5,719.5 -0.5,359.5 -0.5,-0.5 Z"/></g>
<g><path style="opacity:1" fill="#ab9350" d="M 539.5,212.5 C 563.331,210.834 574.831,221.834 574,245.5C 566.895,264.323 553.728,270.49 534.5,264C 516.99,251.059 514.99,236.059 528.5,219C 531.933,216.289 535.6,214.123 539.5,212.5 Z"/></g>
<g><path style="opacity:1" fill="#fbfbfb" d="M 533.5,294.5 C 584.374,288.711 629.707,301.544 669.5,333C 710.135,370.796 730.135,417.629 729.5,473.5C 726.413,552.208 689.08,607.708 617.5,640C 576.05,655.432 533.383,660.098 489.5,654C 425.252,643.667 377.085,610.501 345,554.5C 325.773,511.671 321.439,467.337 332,421.5C 345.929,371.582 375.929,334.915 422,311.5C 423.274,312.535 424.44,313.702 425.5,315C 403.601,330.578 388.101,351.078 379,376.5C 358.562,436.417 359.896,495.75 383,554.5C 408.284,603.088 448.118,631.588 502.5,640C 550.168,646.351 593.168,635.351 631.5,607C 664.425,578.326 683.592,542.159 689,498.5C 696.689,446.574 685.689,399.241 656,356.5C 633.85,328.838 605.016,313.338 569.5,310C 528.425,304.915 492.925,316.415 463,344.5C 450.535,358.982 442.535,375.649 439,394.5C 438.479,401.848 438.645,409.181 439.5,416.5C 436.167,416.973 434,415.64 433,412.5C 431.087,357.804 455.587,320.638 506.5,301C 515.516,298.328 524.516,296.161 533.5,294.5 Z"/></g>
<g><path style="opacity:1" fill="#aa924f" d="M 425.5,543.5 C 426.981,538.988 427.648,534.322 427.5,529.5C 432.567,514.041 440.734,500.375 452,488.5C 453.255,489.211 454.421,490.044 455.5,491C 436.137,515.091 430.971,541.925 440,571.5C 452.087,596.227 471.92,610.06 499.5,613C 520.654,614.298 539.654,608.631 556.5,596C 576.273,575.32 582.107,551.153 574,523.5C 568.505,510.67 560.672,499.504 550.5,490C 525.833,470.667 501.167,451.333 476.5,432C 451.967,408.511 447.8,381.677 464,351.5C 479.928,327.959 502.095,318.125 530.5,322C 537.241,322.534 543.907,323.534 550.5,325C 556.491,325.499 562.491,325.666 568.5,325.5C 569.031,340.828 569.364,356.161 569.5,371.5C 568.167,371.5 566.833,371.5 565.5,371.5C 565.218,357.099 558.884,346.266 546.5,339C 527.804,329.505 509.804,330.505 492.5,342C 475.18,358.572 471.68,377.738 482,399.5C 485.131,403.633 488.631,407.466 492.5,411C 517.5,430.667 542.5,450.333 567.5,470C 593.493,492.157 605.66,520.324 604,554.5C 595.974,595.191 571.474,619.025 530.5,626C 503.688,630.092 479.022,624.758 456.5,610C 435.5,592.832 425.167,570.665 425.5,543.5 Z"/></g>
<g><path style="opacity:1" fill="#fcfcfc" d="M 427.5,529.5 C 427.648,534.322 426.981,538.988 425.5,543.5C 419.973,550.843 412.64,553.343 403.5,551C 394.504,546.171 391.004,538.671 393,528.5C 399.031,516.406 408.198,513.239 420.5,519C 424.219,521.612 426.552,525.112 427.5,529.5 Z"/></g>
<g><path style="opacity:1" fill="#f4f4f4" d="M 508.5,673.5 C 518.401,672.128 527.401,674.295 535.5,680C 538.273,682.383 540.439,685.217 542,688.5C 546.779,716.393 534.946,728.893 506.5,726C 489.926,719.689 483.76,707.855 488,690.5C 492.038,681.282 498.871,675.615 508.5,673.5 Z"/></g>
<g><path style="opacity:1" fill="#f2f2f2" d="M 292.5,674.5 C 298.838,674.767 305.171,675.1 311.5,675.5C 311.665,679.182 311.499,682.848 311,686.5C 309.883,685.051 309.216,683.384 309,681.5C 308.097,680.299 306.931,679.465 305.5,679C 301.833,678.333 298.167,678.333 294.5,679C 290.448,681.376 289.615,684.543 292,688.5C 299.51,693.589 306.844,698.922 314,704.5C 318.365,719.835 312.365,727.502 296,727.5C 291.128,727.765 286.628,726.598 282.5,724C 281.012,719.379 281.345,714.879 283.5,710.5C 285,721.077 291,725.577 301.5,724C 306.121,721.923 307.955,718.423 307,713.5C 301.445,708.945 295.612,704.779 289.5,701C 281.425,694.403 280.425,686.903 286.5,678.5C 288.565,677.143 290.565,675.81 292.5,674.5 Z"/></g>
<g><path style="opacity:1" fill="#050505" d="M 511.5,676.5 C 522.671,676.173 529.171,681.506 531,692.5C 532.011,700 531.345,707.333 529,714.5C 522.953,724.132 515.119,725.965 505.5,720C 497.323,708.364 496.49,696.197 503,683.5C 505.441,680.546 508.275,678.213 511.5,676.5 Z"/></g>
<g><path style="opacity:1" fill="#ab9350" d="M 389.5,679.5 C 412.646,678.159 422.146,688.826 418,711.5C 409.448,724.849 397.948,728.016 383.5,721C 373.738,711.572 371.905,700.739 378,688.5C 381.449,684.877 385.283,681.877 389.5,679.5 Z"/></g>
<g><path style="opacity:1" fill="#848484" d="M 451.5,682.5 C 443.648,682.175 435.982,682.508 428.5,683.5C 427.325,683.719 426.325,683.386 425.5,682.5C 434.325,681.179 442.991,681.179 451.5,682.5 Z"/></g>
<g><path style="opacity:1" fill="#898989" d="M 565.5,683.5 C 560.833,682.167 556.167,682.167 551.5,683.5C 550.711,683.217 550.044,682.717 549.5,682C 555.5,681.333 561.5,681.333 567.5,682C 566.956,682.717 566.289,683.217 565.5,683.5 Z"/></g>
<g><path style="opacity:1" fill="#838383" d="M 593.5,683.5 C 590.833,682.167 588.167,682.167 585.5,683.5C 584.624,683.631 583.957,683.298 583.5,682.5C 587.833,681.167 592.167,681.167 596.5,682.5C 595.675,683.386 594.675,683.719 593.5,683.5 Z"/></g>
<g><path style="opacity:1" fill="#868686" d="M 675.5,682.5 C 666.651,682.174 657.984,682.507 649.5,683.5C 648.624,683.631 647.957,683.298 647.5,682.5C 656.992,681.178 666.325,681.178 675.5,682.5 Z"/></g>
<g><path style="opacity:1" fill="#878787" d="M 718.5,683.5 C 713.833,682.167 709.167,682.167 704.5,683.5C 703.325,683.719 702.325,683.386 701.5,682.5C 708.167,681.167 714.833,681.167 721.5,682.5C 720.675,683.386 719.675,683.719 718.5,683.5 Z"/></g>
<g><path style="opacity:1" fill="#8e8e8e" d="M 756.5,681.5 C 747.5,682.167 738.5,682.833 729.5,683.5C 728.711,683.217 728.044,682.717 727.5,682C 737.161,681.5 746.828,681.334 756.5,681.5 Z"/></g>
<g><path style="opacity:1" fill="#f6f6f6" d="M 756.5,681.5 C 757.167,681.5 757.833,681.5 758.5,681.5C 759.833,683.833 759.833,686.167 758.5,688.5C 757.738,686.738 756.404,685.738 754.5,685.5C 750.366,684.515 746.032,684.182 741.5,684.5C 741.177,690.69 741.51,696.69 742.5,702.5C 745.85,702.665 749.183,702.498 752.5,702C 754.426,701.578 755.426,700.411 755.5,698.5C 756.833,702.167 756.833,705.833 755.5,709.5C 755.426,707.589 754.426,706.422 752.5,706C 749.183,705.502 745.85,705.335 742.5,705.5C 742.5,711.167 742.5,716.833 742.5,722.5C 747.267,722.809 751.934,722.309 756.5,721C 759.734,719.056 761.9,716.222 763,712.5C 762.837,716.832 762.337,721.166 761.5,725.5C 749.829,725.667 738.162,725.5 726.5,725C 728.101,724.727 729.601,724.227 731,723.5C 731.667,710.5 731.667,697.5 731,684.5C 730.617,683.944 730.117,683.611 729.5,683.5C 738.5,682.833 747.5,682.167 756.5,681.5 Z"/></g>
<g><path style="opacity:1" fill="#838383" d="M 758.5,681.5 C 758.56,680.957 758.893,680.624 759.5,680.5C 760.833,684.5 760.833,688.5 759.5,692.5C 758.571,691.311 758.238,689.978 758.5,688.5C 759.833,686.167 759.833,683.833 758.5,681.5 Z"/></g>
<g><path style="opacity:1" fill="#898989" d="M 339.5,684.5 C 334.5,683.167 329.5,683.167 324.5,684.5C 323.711,684.217 323.044,683.717 322.5,683C 328.833,682.333 335.167,682.333 341.5,683C 340.956,683.717 340.289,684.217 339.5,684.5 Z"/></g>
<g><path style="opacity:1" fill="#858585" d="M 368.5,684.5 C 363.833,683.167 359.167,683.167 354.5,684.5C 353.325,684.719 352.325,684.386 351.5,683.5C 358.167,682.167 364.833,682.167 371.5,683.5C 370.675,684.386 369.675,684.719 368.5,684.5 Z"/></g>
<g><path style="opacity:1" fill="#f5f5f5" d="M 451.5,682.5 C 462.248,684.654 465.748,690.988 462,701.5C 457.914,707.118 452.414,708.951 445.5,707C 444.328,706.581 443.328,705.915 442.5,705C 449.176,704.153 452.509,700.32 452.5,693.5C 451.391,686.731 447.391,683.731 440.5,684.5C 440.333,697.171 440.5,709.838 441,722.5C 442.171,723.893 443.671,724.727 445.5,725C 438.833,725.667 432.167,725.667 425.5,725C 426.766,724.691 427.933,724.191 429,723.5C 429.813,710.092 429.647,696.758 428.5,683.5C 435.982,682.508 443.648,682.175 451.5,682.5 Z"/></g>
<g><path style="opacity:1" fill="#f7f7f7" d="M 551.5,683.5 C 556.167,682.167 560.833,682.167 565.5,683.5C 564.883,683.611 564.383,683.944 564,684.5C 563.333,694.167 563.333,703.833 564,713.5C 567.474,723.649 573.974,726.149 583.5,721C 585.068,718.696 586.235,716.196 587,713.5C 587.667,703.833 587.667,694.167 587,684.5C 586.617,683.944 586.117,683.611 585.5,683.5C 588.167,682.167 590.833,682.167 593.5,683.5C 592.955,694.829 592.121,706.162 591,717.5C 586.794,723.937 580.794,726.937 573,726.5C 563.679,727.016 557.346,723.016 554,714.5C 553.667,704.5 553.333,694.5 553,684.5C 552.617,683.944 552.117,683.611 551.5,683.5 Z"/></g>
<g><path style="opacity:1" fill="#f8f8f8" d="M 649.5,683.5 C 657.984,682.507 666.651,682.174 675.5,682.5C 691.476,684.422 698.309,693.422 696,709.5C 693.188,718.643 687.022,723.81 677.5,725C 660.167,725.667 642.833,725.667 625.5,725C 627.41,724.592 628.41,723.425 628.5,721.5C 627.533,719.238 626.866,716.905 626.5,714.5C 621.156,714.334 615.823,714.501 610.5,715C 609.095,716.977 608.095,719.143 607.5,721.5C 607.59,723.425 608.59,724.592 610.5,725C 605.833,725.667 601.167,725.667 596.5,725C 598.848,724.654 600.681,723.487 602,721.5C 608.333,707.5 614.667,693.5 621,679.5C 627.861,694.722 635.361,709.556 643.5,724C 646.669,724.978 649.503,724.478 652,722.5C 652.667,710.167 652.667,697.833 652,685.5C 651.292,684.619 650.458,683.953 649.5,683.5 Z"/></g>
<g><path style="opacity:1" fill="#fdfdfd" d="M 704.5,683.5 C 709.167,682.167 713.833,682.167 718.5,683.5C 717.778,683.918 717.278,684.584 717,685.5C 716.333,697.833 716.333,710.167 717,722.5C 718.171,723.893 719.671,724.727 721.5,725C 714.833,725.667 708.167,725.667 701.5,725C 703.329,724.727 704.829,723.893 706,722.5C 706.667,710.167 706.667,697.833 706,685.5C 705.722,684.584 705.222,683.918 704.5,683.5 Z"/></g>
<g><path style="opacity:1" fill="#f8f8f8" d="M 324.5,684.5 C 329.5,683.167 334.5,683.167 339.5,684.5C 338.883,684.611 338.383,684.944 338,685.5C 337.501,691.157 337.334,696.824 337.5,702.5C 343.645,703.49 349.978,703.823 356.5,703.5C 356.823,697.31 356.49,691.31 355.5,685.5C 355.5,684.833 355.167,684.5 354.5,684.5C 359.167,683.167 363.833,683.167 368.5,684.5C 367.883,684.611 367.383,684.944 367,685.5C 366.333,698.167 366.333,710.833 367,723.5C 368.171,724.893 369.671,725.727 371.5,726C 364.833,726.667 358.167,726.667 351.5,726C 353.329,725.727 354.829,724.893 356,723.5C 356.499,717.843 356.666,712.176 356.5,706.5C 350.167,706.5 343.833,706.5 337.5,706.5C 337.334,712.509 337.501,718.509 338,724.5C 339.067,725.191 340.234,725.691 341.5,726C 334.833,726.667 328.167,726.667 321.5,726C 323.329,725.727 324.829,724.893 326,723.5C 326.667,710.833 326.667,698.167 326,685.5C 325.617,684.944 325.117,684.611 324.5,684.5 Z"/></g>
<g><path style="opacity:1" fill="#080808" d="M 662.5,684.5 C 676.896,682.402 684.563,688.569 685.5,703C 685.435,718.375 677.769,724.875 662.5,722.5C 662.5,709.833 662.5,697.167 662.5,684.5 Z"/></g>
<g><path style="opacity:1" fill="#b4b4b4" d="M 754.5,685.5 C 750.5,685.5 746.5,685.5 742.5,685.5C 742.5,691.167 742.5,696.833 742.5,702.5C 741.51,696.69 741.177,690.69 741.5,684.5C 746.032,684.182 750.366,684.515 754.5,685.5 Z"/></g>
<g><path style="opacity:1" fill="#5d5d5d" d="M 755.5,709.5 C 756.833,705.833 756.833,702.167 755.5,698.5C 755.369,697.624 755.702,696.957 756.5,696.5C 757.833,701.5 757.833,706.5 756.5,711.5C 755.702,711.043 755.369,710.376 755.5,709.5 Z"/></g>
<g><path style="opacity:1" fill="#0d0d0d" d="M 623.5,709.5 C 619.833,710.833 616.167,710.833 612.5,709.5C 614.318,705.192 616.152,700.859 618,696.5C 619.937,700.817 621.77,705.15 623.5,709.5 Z"/></g>
<g><path style="opacity:1" fill="#393939" d="M 355.5,685.5 C 356.49,691.31 356.823,697.31 356.5,703.5C 349.978,703.823 343.645,703.49 337.5,702.5C 343.5,702.5 349.5,702.5 355.5,702.5C 355.5,696.833 355.5,691.167 355.5,685.5 Z"/></g>
<g><path style="opacity:1" fill="#505050" d="M 612.5,709.5 C 616.167,710.833 619.833,710.833 623.5,709.5C 624.043,709.56 624.376,709.893 624.5,710.5C 620.167,711.833 615.833,711.833 611.5,710.5C 611.624,709.893 611.957,709.56 612.5,709.5 Z"/></g>
</svg>
