
<svg xmlns="http://www.w3.org/2000/svg" version="1.1" width="1080px" height="1080px" style="shape-rendering:geometricPrecision; text-rendering:geometricPrecision; image-rendering:optimizeQuality; fill-rule:evenodd; clip-rule:evenodd" xmlns:xlink="http://www.w3.org/1999/xlink">
<g><path style="opacity:1" fill="#fefefe" d="M -0.5,-0.5 C 359.5,-0.5 719.5,-0.5 1079.5,-0.5C 1079.5,359.5 1079.5,719.5 1079.5,1079.5C 719.5,1079.5 359.5,1079.5 -0.5,1079.5C -0.5,719.5 -0.5,359.5 -0.5,-0.5 Z"/></g>
<g><path style="opacity:1" fill="#ad9552" d="M 539.5,212.5 C 563.331,210.834 574.831,221.834 574,245.5C 568.425,261.374 557.259,268.208 540.5,266C 524.957,260.762 518.124,249.929 520,233.5C 522.95,223.055 529.45,216.055 539.5,212.5 Z"/></g>
<g><path style="opacity:1" fill="#030303" d="M 531.5,292.5 C 620.026,286.148 681.526,323.481 716,404.5C 731.659,450.989 731.326,497.323 715,543.5C 694.045,591.788 659.212,625.954 610.5,646C 563.453,662.677 515.453,666.01 466.5,656C 404.122,641.092 358.955,604.925 331,547.5C 308.708,488.904 312.041,431.904 341,376.5C 358.418,348.081 381.918,326.247 411.5,311C 414.531,309.925 416.531,310.925 417.5,314C 390.439,333.579 372.939,359.746 365,392.5C 350.828,445.853 352.828,498.52 371,550.5C 393.57,600.07 431.403,630.904 484.5,643C 530.721,652.052 574.055,644.718 614.5,621C 660.82,587.575 685.32,542.075 688,484.5C 691.551,436.202 679.218,392.536 651,353.5C 628.443,326.636 599.61,311.469 564.5,308C 534.803,304.606 506.803,309.94 480.5,324C 445.871,345.089 429.538,375.922 431.5,416.5C 430.07,416.421 428.736,416.754 427.5,417.5C 421.573,378.115 433.573,345.282 463.5,319C 483.729,303.76 506.395,294.927 531.5,292.5 Z"/></g>
<g><path style="opacity:1" fill="#ae9653" d="M 425.5,543.5 C 426.981,538.988 427.648,534.322 427.5,529.5C 432.567,514.041 440.734,500.375 452,488.5C 453.158,488.998 453.991,489.831 454.5,491C 444.897,504.376 438.731,519.209 436,535.5C 433.064,573.472 449.564,598.639 485.5,611C 511.444,616.535 535.111,611.535 556.5,596C 573.107,579.257 579.94,559.091 577,535.5C 573.108,516.884 563.942,501.384 549.5,489C 525.167,470 500.833,451 476.5,432C 458.554,416.166 451.72,396.333 456,372.5C 464.496,340 485.496,323 519,321.5C 529.58,321.935 540.08,323.101 550.5,325C 556.825,325.5 563.158,325.666 569.5,325.5C 569.5,340.833 569.5,356.167 569.5,371.5C 568.167,371.5 566.833,371.5 565.5,371.5C 563.914,350.746 552.914,338.246 532.5,334C 504.846,329.339 486.346,340.172 477,366.5C 473.57,384.966 479.07,400.133 493.5,412C 518.5,431.667 543.5,451.333 568.5,471C 593.916,493.006 605.75,520.839 604,554.5C 595.685,594.959 571.185,618.793 530.5,626C 501.749,630.311 475.749,623.978 452.5,607C 434.446,589.669 425.446,568.502 425.5,543.5 Z"/></g>
<g><path style="opacity:1" fill="#030303" d="M 427.5,529.5 C 427.648,534.322 426.981,538.988 425.5,543.5C 419.973,550.843 412.64,553.343 403.5,551C 394.485,546.133 390.985,538.633 393,528.5C 399.031,516.406 408.198,513.239 420.5,519C 424.219,521.612 426.552,525.112 427.5,529.5 Z"/></g>
<g><path style="opacity:1" fill="#0c0c0c" d="M 508.5,673.5 C 535.415,671.905 546.582,684.239 542,710.5C 539.5,717 535,721.5 528.5,724C 517.831,727.871 507.497,727.204 497.5,722C 486.073,712.053 483.573,700.22 490,686.5C 494.576,679.804 500.742,675.471 508.5,673.5 Z"/></g>
<g><path style="opacity:1" fill="#0c0c0c" d="M 293.5,674.5 C 299.5,674.833 305.5,675.167 311.5,675.5C 311.665,678.85 311.498,682.183 311,685.5C 308.189,679.177 303.355,676.677 296.5,678C 292.027,679.774 290.194,682.94 291,687.5C 297.239,692.37 303.739,696.87 310.5,701C 316.181,707.124 317.014,713.958 313,721.5C 303.387,728.371 293.22,729.204 282.5,724C 281.873,722.262 281.54,720.429 281.5,718.5C 281.321,715.869 281.987,713.535 283.5,711.5C 286.463,723.813 293.796,727.313 305.5,722C 307.347,719.421 307.847,716.588 307,713.5C 301.277,708.389 295.11,703.889 288.5,700C 282.529,694.965 281.029,688.798 284,681.5C 286.529,678.115 289.696,675.782 293.5,674.5 Z"/></g>
<g><path style="opacity:1" fill="#fafafa" d="M 511.5,676.5 C 521.749,675.912 528.249,680.579 531,690.5C 531.89,697.914 531.557,705.247 530,712.5C 524.861,722.879 517.028,725.712 506.5,721C 501.022,714.951 498.356,707.784 498.5,699.5C 497.992,688.825 502.326,681.158 511.5,676.5 Z"/></g>
<g><path style="opacity:1" fill="#ad9552" d="M 391.5,679.5 C 413.29,679.406 422.123,690.072 418,711.5C 409.488,724.84 397.988,728.006 383.5,721C 373.738,711.572 371.905,700.739 378,688.5C 381.871,684.331 386.371,681.331 391.5,679.5 Z"/></g>
<g><path style="opacity:1" fill="#8a8a8a" d="M 451.5,682.5 C 443.648,682.175 435.982,682.508 428.5,683.5C 427.325,683.719 426.325,683.386 425.5,682.5C 434.325,681.179 442.991,681.179 451.5,682.5 Z"/></g>
<g><path style="opacity:1" fill="#878787" d="M 565.5,683.5 C 560.833,682.167 556.167,682.167 551.5,683.5C 550.711,683.217 550.044,682.717 549.5,682C 555.5,681.333 561.5,681.333 567.5,682C 566.956,682.717 566.289,683.217 565.5,683.5 Z"/></g>
<g><path style="opacity:1" fill="#8c8c8c" d="M 593.5,683.5 C 590.833,682.167 588.167,682.167 585.5,683.5C 584.624,683.631 583.957,683.298 583.5,682.5C 587.833,681.167 592.167,681.167 596.5,682.5C 595.675,683.386 594.675,683.719 593.5,683.5 Z"/></g>
<g><path style="opacity:1" fill="#888888" d="M 675.5,682.5 C 666.983,682.174 658.65,682.507 650.5,683.5C 649.325,683.719 648.325,683.386 647.5,682.5C 656.992,681.178 666.325,681.178 675.5,682.5 Z"/></g>
<g><path style="opacity:1" fill="#858585" d="M 718.5,683.5 C 713.833,682.167 709.167,682.167 704.5,683.5C 703.325,683.719 702.325,683.386 701.5,682.5C 708.142,681.336 714.808,681.169 721.5,682C 720.473,682.513 719.473,683.013 718.5,683.5 Z"/></g>
<g><path style="opacity:1" fill="#828282" d="M 756.5,681.5 C 747.5,682.167 738.5,682.833 729.5,683.5C 728.711,683.217 728.044,682.717 727.5,682C 737.161,681.5 746.828,681.334 756.5,681.5 Z"/></g>
<g><path style="opacity:1" fill="#0d0d0d" d="M 756.5,681.5 C 757.5,681.5 758.5,681.5 759.5,681.5C 759.802,684.059 759.468,686.393 758.5,688.5C 757.738,686.738 756.404,685.738 754.5,685.5C 750.366,684.515 746.032,684.182 741.5,684.5C 741.177,690.69 741.51,696.69 742.5,702.5C 745.85,702.665 749.183,702.498 752.5,702C 754.426,701.578 755.426,700.411 755.5,698.5C 756.833,702.167 756.833,705.833 755.5,709.5C 755.489,707.983 754.823,706.816 753.5,706C 749.848,705.501 746.182,705.335 742.5,705.5C 742.5,711.167 742.5,716.833 742.5,722.5C 752.564,725.262 759.397,721.928 763,712.5C 762.546,716.783 762.046,721.117 761.5,725.5C 750.162,725.667 738.828,725.5 727.5,725C 728.766,724.691 729.933,724.191 731,723.5C 731.667,710.5 731.667,697.5 731,684.5C 730.617,683.944 730.117,683.611 729.5,683.5C 738.5,682.833 747.5,682.167 756.5,681.5 Z"/></g>
<g><path style="opacity:1" fill="#858585" d="M 759.5,681.5 C 760.808,685.019 760.808,688.685 759.5,692.5C 758.571,691.311 758.238,689.978 758.5,688.5C 759.468,686.393 759.802,684.059 759.5,681.5 Z"/></g>
<g><path style="opacity:1" fill="#878787" d="M 339.5,684.5 C 334.5,683.167 329.5,683.167 324.5,684.5C 323.711,684.217 323.044,683.717 322.5,683C 328.833,682.333 335.167,682.333 341.5,683C 340.956,683.717 340.289,684.217 339.5,684.5 Z"/></g>
<g><path style="opacity:1" fill="#8a8a8a" d="M 368.5,684.5 C 363.833,683.167 359.167,683.167 354.5,684.5C 353.325,684.719 352.325,684.386 351.5,683.5C 358.167,682.167 364.833,682.167 371.5,683.5C 370.675,684.386 369.675,684.719 368.5,684.5 Z"/></g>
<g><path style="opacity:1" fill="#040404" d="M 428.5,683.5 C 435.982,682.508 443.648,682.175 451.5,682.5C 463.006,685.18 466.173,691.847 461,702.5C 455.46,708.004 449.293,708.838 442.5,705C 451.115,703.283 454.281,698.116 452,689.5C 449.181,685.507 445.347,683.84 440.5,684.5C 440.333,697.171 440.5,709.838 441,722.5C 442.171,723.893 443.671,724.727 445.5,725C 438.833,725.667 432.167,725.667 425.5,725C 427.329,724.727 428.829,723.893 430,722.5C 430.667,710.167 430.667,697.833 430,685.5C 429.722,684.584 429.222,683.918 428.5,683.5 Z"/></g>
<g><path style="opacity:1" fill="#0b0b0b" d="M 551.5,683.5 C 556.167,682.167 560.833,682.167 565.5,683.5C 564.883,683.611 564.383,683.944 564,684.5C 563.333,694.167 563.333,703.833 564,713.5C 567.474,723.649 573.974,726.149 583.5,721C 585.317,719.2 586.484,717.034 587,714.5C 587.667,704.5 587.667,694.5 587,684.5C 586.617,683.944 586.117,683.611 585.5,683.5C 588.167,682.167 590.833,682.167 593.5,683.5C 592.67,693.659 592.17,703.992 592,714.5C 588.618,723.031 582.285,727.031 573,726.5C 564.206,726.94 557.873,723.274 554,715.5C 553.667,705.167 553.333,694.833 553,684.5C 552.617,683.944 552.117,683.611 551.5,683.5 Z"/></g>
<g><path style="opacity:1" fill="#080808" d="M 650.5,683.5 C 658.65,682.507 666.983,682.174 675.5,682.5C 695.267,686.362 701.1,697.695 693,716.5C 688.931,721.285 683.764,724.119 677.5,725C 659.133,725.818 642.799,725.652 628.5,724.5C 628.6,721.333 627.933,718.333 626.5,715.5C 620.872,714.505 615.206,714.171 609.5,714.5C 609.134,716.905 608.467,719.238 607.5,721.5C 607.59,723.425 608.59,724.592 610.5,725C 605.833,725.667 601.167,725.667 596.5,725C 598.848,724.654 600.681,723.487 602,721.5C 608.623,707.923 614.957,694.256 621,680.5C 627.923,694.013 634.59,707.68 641,721.5C 644.39,725.032 648.057,725.366 652,722.5C 652.667,710.167 652.667,697.833 652,685.5C 651.722,684.584 651.222,683.918 650.5,683.5 Z"/></g>
<g><path style="opacity:1" fill="#010101" d="M 704.5,683.5 C 709.167,682.167 713.833,682.167 718.5,683.5C 717.883,683.611 717.383,683.944 717,684.5C 716.333,697.167 716.333,709.833 717,722.5C 718.171,723.893 719.671,724.727 721.5,725C 714.833,725.667 708.167,725.667 701.5,725C 703.329,724.727 704.829,723.893 706,722.5C 706.667,709.833 706.667,697.167 706,684.5C 705.617,683.944 705.117,683.611 704.5,683.5 Z"/></g>
<g><path style="opacity:1" fill="#0b0b0b" d="M 324.5,684.5 C 329.5,683.167 334.5,683.167 339.5,684.5C 338.883,684.611 338.383,684.944 338,685.5C 337.501,691.491 337.334,697.491 337.5,703.5C 343.833,703.5 350.167,703.5 356.5,703.5C 356.666,697.491 356.499,691.491 356,685.5C 355.617,684.944 355.117,684.611 354.5,684.5C 359.167,683.167 363.833,683.167 368.5,684.5C 367.883,684.611 367.383,684.944 367,685.5C 366.333,698.167 366.333,710.833 367,723.5C 368.171,724.893 369.671,725.727 371.5,726C 364.833,726.667 358.167,726.667 351.5,726C 353.329,725.727 354.829,724.893 356,723.5C 356.499,717.843 356.666,712.176 356.5,706.5C 350.167,706.5 343.833,706.5 337.5,706.5C 337.334,712.509 337.501,718.509 338,724.5C 339.067,725.191 340.234,725.691 341.5,726C 335.167,726.667 328.833,726.667 322.5,726C 323.766,725.691 324.933,725.191 326,724.5C 326.667,711.5 326.667,698.5 326,685.5C 325.617,684.944 325.117,684.611 324.5,684.5 Z"/></g>
<g><path style="opacity:1" fill="#fbfbfb" d="M 662.5,684.5 C 676.694,682.374 684.36,688.374 685.5,702.5C 685.928,718.403 678.261,725.069 662.5,722.5C 662.5,709.833 662.5,697.167 662.5,684.5 Z"/></g>
<g><path style="opacity:1" fill="#565656" d="M 754.5,685.5 C 750.5,685.5 746.5,685.5 742.5,685.5C 742.5,691.167 742.5,696.833 742.5,702.5C 741.51,696.69 741.177,690.69 741.5,684.5C 746.032,684.182 750.366,684.515 754.5,685.5 Z"/></g>
<g><path style="opacity:1" fill="#b1b1b1" d="M 755.5,709.5 C 756.833,705.833 756.833,702.167 755.5,698.5C 755.369,697.624 755.702,696.957 756.5,696.5C 757.833,701.5 757.833,706.5 756.5,711.5C 755.702,711.043 755.369,710.376 755.5,709.5 Z"/></g>
<g><path style="opacity:1" fill="#ebebeb" d="M 617.5,696.5 C 620.315,700.796 622.648,705.462 624.5,710.5C 620.167,711.833 615.833,711.833 611.5,710.5C 614.063,706.044 616.063,701.377 617.5,696.5 Z"/></g>
</svg>
